<?xml version="1.0" encoding="UTF-8"?>
<svg version="1.1" xmlns="http://www.w3.org/2000/svg" width="677" height="369">
<path d="M0 0 C4.33125 -0.061875 8.6625 -0.12375 13.125 -0.1875 C14.47996582 -0.21481201 15.83493164 -0.24212402 17.23095703 -0.27026367 C18.85300049 -0.28150269 18.85300049 -0.28150269 20.5078125 -0.29296875 C21.60754395 -0.3086792 22.70727539 -0.32438965 23.84033203 -0.34057617 C28.74791859 0.18840569 31.97841326 1.8955819 35.3125 5.5 C38.14112473 9.69055516 38.41496987 13.02036155 38 18 C36.87148645 20.53792349 35.52758429 22.66088655 34 25 C34.804375 25.845625 35.60875 26.69125 36.4375 27.5625 C39.22764055 30.93920419 39.92206403 33.55764944 40 38 C39.19077614 43.76572002 37.11247383 46.31519393 32.75390625 49.8359375 C29.10396385 52.25839371 25.83296714 52.11689125 21.58203125 52.09765625 C19.88784058 52.09390991 19.88784058 52.09390991 18.15942383 52.09008789 C16.00769653 52.07643188 16.00769653 52.07643188 13.8125 52.0625 C9.254375 52.041875 4.69625 52.02125 0 52 C0 34.84 0 17.68 0 0 Z M12 10 C12 13.3 12 16.6 12 20 C13.77007714 20.08114106 15.54122098 20.13925505 17.3125 20.1875 C18.29863281 20.22230469 19.28476562 20.25710937 20.30078125 20.29296875 C23.015368 20.22387958 23.015368 20.22387958 24.8671875 18.6484375 C26.26685794 16.97954571 26.26685794 16.97954571 25.8125 14.4375 C25.15372967 11.85558728 25.15372967 11.85558728 23 10 C20.33050591 9.75684344 20.33050591 9.75684344 17.375 9.875 C16.37210937 9.89304688 15.36921875 9.91109375 14.3359375 9.9296875 C13.17964844 9.96449219 13.17964844 9.96449219 12 10 Z M12 30 C12 33.96 12 37.92 12 42 C13.918125 42.061875 15.83625 42.12375 17.8125 42.1875 C18.89144531 42.22230469 19.97039062 42.25710937 21.08203125 42.29296875 C23.98067151 42.24508462 23.98067151 42.24508462 25.86328125 40.67578125 C27.63321345 38.06649976 27.38278316 36.0622653 27 33 C25.92450521 31.20443332 25.92450521 31.20443332 24 30 C21.02807238 29.63680691 21.02807238 29.63680691 17.8125 29.8125 C14.9353125 29.9053125 14.9353125 29.9053125 12 30 Z " fill="#FBFCFB" transform="translate(337,155)"/>
<path d="M0 0 C0.89847656 0.00257813 1.79695312 0.00515625 2.72265625 0.0078125 C3.61855469 0.00523437 4.51445312 0.00265625 5.4375 0 C7.78515625 0.1328125 7.78515625 0.1328125 9.78515625 1.1328125 C10.44515625 0.8028125 11.10515625 0.4728125 11.78515625 0.1328125 C18.48358637 -0.43633516 22.76803154 0.12425015 28.78515625 3.1328125 C29.50703125 2.6996875 30.22890625 2.2665625 30.97265625 1.8203125 C35.37953693 -0.82381591 39.7744963 -0.52203146 44.78515625 0.1328125 C49.8758044 2.49632771 51.6558363 5.04061198 53.78515625 10.1328125 C54.12573242 13.29248047 54.12573242 13.29248047 54.078125 16.625 C54.06362305 18.42324219 54.06362305 18.42324219 54.04882812 20.2578125 C54.02369141 21.4953125 53.99855469 22.7328125 53.97265625 24.0078125 C53.95235352 25.89886719 53.95235352 25.89886719 53.93164062 27.828125 C53.8963935 30.92987157 53.84258986 34.03139742 53.78515625 37.1328125 C49.82515625 37.1328125 45.86515625 37.1328125 41.78515625 37.1328125 C41.29015625 24.2628125 41.29015625 24.2628125 40.78515625 11.1328125 C35.30690544 10.6855989 35.30690544 10.6855989 32.78515625 12.1328125 C31.81198815 15.0523168 31.59220165 17.18726201 31.46875 20.23828125 C31.4059082 21.71264648 31.4059082 21.71264648 31.34179688 23.21679688 C31.30248047 24.24095703 31.26316406 25.26511719 31.22265625 26.3203125 C31.15788086 27.87395508 31.15788086 27.87395508 31.09179688 29.45898438 C30.98571362 32.01676952 30.88493039 34.57477348 30.78515625 37.1328125 C27.15515625 37.1328125 23.52515625 37.1328125 19.78515625 37.1328125 C19.73617187 35.50730469 19.6871875 33.88179687 19.63671875 32.20703125 C19.5616906 30.07810758 19.48614279 27.94920218 19.41015625 25.8203125 C19.37921875 24.74845703 19.34828125 23.67660156 19.31640625 22.57226562 C19.27773437 21.54423828 19.2390625 20.51621094 19.19921875 19.45703125 C19.16779785 18.50916748 19.13637695 17.56130371 19.10400391 16.5847168 C18.93625115 13.8797856 18.93625115 13.8797856 16.78515625 11.1328125 C14.28515625 10.6328125 14.28515625 10.6328125 11.78515625 11.1328125 C9.59350681 14.42028666 9.49836239 15.61776075 9.37109375 19.45703125 C9.31308594 20.99907227 9.31308594 20.99907227 9.25390625 22.57226562 C9.22296875 23.64412109 9.19203125 24.71597656 9.16015625 25.8203125 C9.10214844 27.44549805 9.10214844 27.44549805 9.04296875 29.10351562 C8.94865509 31.77966584 8.86581499 34.45621592 8.78515625 37.1328125 C4.82515625 37.1328125 0.86515625 37.1328125 -3.21484375 37.1328125 C-3.23949385 32.02417354 -3.25767982 26.91556891 -3.26977539 21.80688477 C-3.27481579 20.06762082 -3.28164805 18.32836114 -3.2902832 16.58911133 C-3.30236167 14.09455313 -3.30807483 11.60005077 -3.3125 9.10546875 C-3.31766129 8.32317398 -3.32282257 7.54087921 -3.32814026 6.73487854 C-3.32833601 4.86714136 -3.27684069 2.99952046 -3.21484375 1.1328125 C-2.21484375 0.1328125 -2.21484375 0.1328125 0 0 Z " fill="#FCFCFC" transform="translate(236.21484375,169.8671875)"/>
<path d="M0 0 C1.06089844 0.00902344 2.12179687 0.01804688 3.21484375 0.02734375 C4.15457031 0.03894531 5.09429688 0.05054688 6.0625 0.0625 C7.0525 0.0625 8.0425 0.0625 9.0625 0.0625 C12.72916667 0.0625 16.39583333 0.0625 20.0625 0.0625 C20.18669787 5.75496586 20.2771204 11.44663197 20.3371582 17.14013672 C20.36220241 19.07419587 20.39624811 21.00816131 20.43969727 22.94189453 C20.5007965 25.73233231 20.52881051 28.5215121 20.55078125 31.3125 C20.57658768 32.16803467 20.6023941 33.02356934 20.62898254 33.9050293 C20.63182749 40.08410002 19.10739045 44.33283414 15.0625 49.0625 C9.46589817 53.57386543 3.42018664 53.66326659 -3.58203125 53.453125 C-9.24522282 52.79384775 -13.15166358 51.07156597 -16.9375 46.8125 C-17.4325 45.94625 -17.4325 45.94625 -17.9375 45.0625 C-15.12945732 42.09845495 -12.75434226 39.61750981 -8.9375 38.0625 C-8.07125 38.7225 -7.205 39.3825 -6.3125 40.0625 C-2.63683099 42.24067423 -1.10551155 42.86062987 3.0625 42.0625 C5.98040525 39.8120803 5.98040525 39.8120803 8.0625 37.0625 C8.0625 36.4025 8.0625 35.7425 8.0625 35.0625 C7.0725 35.5575 7.0725 35.5575 6.0625 36.0625 C-1.34501496 36.74817286 -6.99877704 36.76398901 -12.9375 32.0625 C-17.08044759 26.82930304 -18.3263782 22.86973246 -18.21484375 16.21484375 C-17.52335913 10.8485335 -14.88663139 6.59999442 -10.8125 3.125 C-6.76262371 0.21965397 -4.94624878 -0.05395908 0 0 Z M-4.9375 13.0625 C-6.38180855 15.95111709 -6.31438506 17.85897701 -5.9375 21.0625 C-4.02083333 24.14583333 -4.02083333 24.14583333 -0.9375 26.0625 C2.91460127 26.12891554 5.06098005 25.93479157 8 23.375 C9.4238395 20.2760552 9.61403827 18.44067188 9.0625 15.0625 C6.9369845 12.10339856 6.9369845 12.10339856 4.0625 10.0625 C-0.23137011 10.0625 -1.52616484 10.66534556 -4.9375 13.0625 Z " fill="#FCFCFC" transform="translate(577.9375,169.9375)"/>
<path d="M0 0 C3.79797661 1.93230389 6.45072496 3.93410809 9.5625 6.8125 C8.03541037 10.24845166 5.96322955 12.93162454 3.5625 15.8125 C1.03364975 15.3441944 -0.56799855 14.72785229 -2.75 13.3125 C-6.6429697 11.1396797 -10.08526477 10.35879171 -14.5234375 11.21484375 C-18.11120053 12.34185481 -20.22026337 13.60069429 -22.9375 16.25 C-25.09278204 21.36879485 -25.25620643 26.33232992 -24.4375 31.8125 C-22.38226375 35.90560431 -20.64005505 37.9022477 -16.4375 39.8125 C-10.69013473 41.33067196 -6.59859524 40.5057612 -1.4375 37.8125 C-0.7775 37.1525 -0.1175 36.4925 0.5625 35.8125 C2.375 35.8125 2.375 35.8125 4.5625 36.8125 C6.4081968 38.71078075 7.94651815 40.70274592 9.5625 42.8125 C8.176512 46.16316172 6.7868823 47.64621851 3.6875 49.5 C3.00945312 49.91636719 2.33140625 50.33273438 1.6328125 50.76171875 C-4.44309425 53.84552802 -12.24612098 53.75938961 -18.7890625 52.28125 C-26.68221971 49.47750304 -32.09414267 44.93452692 -36.4375 37.8125 C-39.2792392 30.96649192 -39.64074557 22.72993054 -37.375 15.625 C-34.28232761 8.58700256 -29.20251848 3.61169824 -22.234375 0.50390625 C-15.35844418 -2.14183235 -7.03015889 -2.41150799 0 0 Z " fill="#FA4C60" transform="translate(119.4375,155.1875)"/>
<path d="M0 0 C0.9075 0.00257813 1.815 0.00515625 2.75 0.0078125 C4.11125 0.00394531 4.11125 0.00394531 5.5 0 C7.75 0.1328125 7.75 0.1328125 8.75 1.1328125 C8.9084265 3.2036597 9.00124422 5.27959279 9.06640625 7.35546875 C9.10830078 8.61552734 9.15019531 9.87558594 9.19335938 11.17382812 C9.23317596 12.51431986 9.27288814 13.8548147 9.3125 15.1953125 C9.35568042 16.53972773 9.39929456 17.8841291 9.44335938 19.22851562 C9.54985358 22.5298359 9.6518646 25.83123486 9.75 29.1328125 C10.38808594 28.35035156 11.02617187 27.56789062 11.68359375 26.76171875 C12.50988281 25.74980469 13.33617187 24.73789063 14.1875 23.6953125 C15.01121094 22.68597656 15.83492188 21.67664063 16.68359375 20.63671875 C18.75 18.1328125 18.75 18.1328125 19.75 17.1328125 C21.76964199 17.06037197 23.79167124 17.04904062 25.8125 17.0703125 C26.91722656 17.07933594 28.02195312 17.08835938 29.16015625 17.09765625 C30.01480469 17.10925781 30.86945313 17.12085938 31.75 17.1328125 C30.76310053 22.19297735 27.38424743 25.4845437 24.08007812 29.26757812 C22.49993631 31.11621581 22.49993631 31.11621581 20.75 34.1328125 C21.44387454 38.69664708 25.02503756 42.29577912 27.875 45.8203125 C32.75 51.87041581 32.75 51.87041581 32.75 54.1328125 C27.8639114 54.94600221 23.60029989 55.25995895 18.75 54.1328125 C14.63342274 50.7363438 12.17314136 45.79960326 9.75 41.1328125 C9.42 45.4228125 9.09 49.7128125 8.75 54.1328125 C4.79 54.1328125 0.83 54.1328125 -3.25 54.1328125 C-3.27464032 46.60311118 -3.29283141 39.07343311 -3.30493164 31.54370117 C-3.3099737 28.97989493 -3.31680714 26.41609159 -3.32543945 23.85229492 C-3.33751064 20.17626229 -3.34322942 16.50026752 -3.34765625 12.82421875 C-3.35281754 11.67006973 -3.35797882 10.51592072 -3.36329651 9.32679749 C-3.36337204 8.26577316 -3.36344757 7.20474884 -3.36352539 6.11157227 C-3.365746 5.17225357 -3.36796661 4.23293488 -3.37025452 3.26515198 C-3.20331608 0.30501857 -2.96175971 0.17482609 0 0 Z " fill="#FBFCFB" transform="translate(467.25,152.8671875)"/>
<path d="M0 0 C3.87697977 3.87697977 7.17078928 7.95146734 7.5078125 13.6015625 C7.50523437 14.39304688 7.50265625 15.18453125 7.5 16 C7.50386719 17.19496094 7.50386719 17.19496094 7.5078125 18.4140625 C7.375 20.375 7.375 20.375 6.375 21.375 C4.59428754 21.46226223 2.8101686 21.48199041 1.02734375 21.47265625 C-0.05224609 21.46943359 -1.13183594 21.46621094 -2.24414062 21.46289062 C-3.38044922 21.45451172 -4.51675781 21.44613281 -5.6875 21.4375 C-6.82767578 21.43298828 -7.96785156 21.42847656 -9.14257812 21.42382812 C-11.97010351 21.41199747 -14.7975264 21.3955141 -17.625 21.375 C-14.59320736 24.82437715 -14.59320736 24.82437715 -10.125 25.75 C-6.90701528 25.40521592 -5.39926397 24.80996412 -2.625 23.375 C1.17404575 23.61244036 2.90372681 25.63894754 5.375 28.375 C3.91663185 32.21978875 2.01041701 33.5572915 -1.625 35.375 C-7.29652999 37.07061206 -12.69465552 36.99663636 -18.3125 35.1875 C-23.55958696 32.31645242 -27.36909986 29.82188542 -29.5625 24.125 C-31.37682425 17.57387712 -30.82621781 12.01004178 -27.5 6.0625 C-21.10761364 -2.95886779 -9.92014079 -4.44695966 0 0 Z M-16.0625 8.6875 C-17.85146934 10.23628753 -17.85146934 10.23628753 -17.625 12.375 C-13.335 12.375 -9.045 12.375 -4.625 12.375 C-5.285 11.055 -5.945 9.735 -6.625 8.375 C-10.39136515 7.32878746 -12.55748628 6.80018492 -16.0625 8.6875 Z " fill="#FCFCFC" transform="translate(221.625,171.625)"/>
<path d="M0 0 C4.42680966 2.25680492 7.13893817 5.73351474 8.73046875 10.3515625 C10.38519188 19.04211625 10.38519188 19.04211625 8.73046875 22.3515625 C0.81046875 22.6815625 -7.10953125 23.0115625 -15.26953125 23.3515625 C-10.83968457 26.67394751 -9.58410212 26.83470531 -4.26953125 26.3515625 C-3.27953125 25.6915625 -2.28953125 25.0315625 -1.26953125 24.3515625 C2.06642463 24.67439694 4.3356591 26.04228176 6.73046875 28.3515625 C6.73046875 29.6715625 6.73046875 30.9915625 6.73046875 32.3515625 C0.08616187 36.30987298 -5.47215146 38.70651702 -13.26953125 37.3515625 C-19.38772245 35.50086409 -23.8573821 31.73543798 -27.26953125 26.3515625 C-29.14416398 20.63621881 -29.15152511 14.59406358 -26.64453125 9.1015625 C-21.11504703 -0.75705528 -10.55920133 -3.01691466 0 0 Z M-14.20703125 10.7890625 C-14.88765625 11.6346875 -15.56828125 12.4803125 -16.26953125 13.3515625 C-11.64953125 13.3515625 -7.02953125 13.3515625 -2.26953125 13.3515625 C-2.92953125 12.0315625 -3.58953125 10.7115625 -4.26953125 9.3515625 C-8.87212935 7.87525745 -10.41464119 7.64218565 -14.20703125 10.7890625 Z " fill="#FBFCFB" transform="translate(322.26953125,170.6484375)"/>
<path d="M0 0 C4.26421817 3.22416496 7.85431792 6.81295376 9.5625 11.9375 C10.28205243 18.8760413 10.28331302 24.55977744 6.05859375 30.31640625 C2.15764896 34.54327855 -1.91224153 36.53328803 -7.515625 37.17578125 C-14.05855238 37.39937049 -19.05102391 35.99736165 -23.9765625 31.546875 C-27.84058095 27.25352117 -29.23561622 23.15822159 -29.75 17.5 C-29.20707716 11.31067961 -26.75429758 6.37763466 -22.4375 1.9375 C-16.19107405 -2.70727827 -7.16961081 -2.21606152 0 0 Z M-16.4375 12.9375 C-17.88180855 15.82611709 -17.81438506 17.73397701 -17.4375 20.9375 C-14.95147551 24.30094489 -13.52324477 25.73807749 -9.375 26.5 C-5.75312954 25.80645034 -4.59824795 24.89852497 -2.4375 21.9375 C-1.36401531 18.94707837 -1.31902897 17.38984395 -2.125 14.3125 C-3.60548828 11.6335212 -4.77272078 10.42664133 -7.4375 8.9375 C-12.13819146 8.9375 -13.08098653 9.85313627 -16.4375 12.9375 Z " fill="#FCFCFC" transform="translate(408.4375,171.0625)"/>
<path d="M0 0 C4.86005201 2.62591045 7.80850401 6.16073111 9.98046875 11.15625 C11.54161588 17.66102971 11.08716254 23.47475864 7.73046875 29.28125 C3.86551749 33.60426956 -0.41675493 36.79776434 -6.26171875 37.53125 C-12.26516901 37.86362095 -17.28988142 36.72224399 -22.26953125 33.28125 C-26.83730254 28.83566189 -28.64780165 24.50754737 -28.89453125 18.15625 C-28.55092453 12.01037522 -27.20580032 8.21751907 -22.7734375 3.78515625 C-16.5771521 -1.66942916 -7.84353349 -2.48401061 0 0 Z M-14.01953125 10.71875 C-16.88042785 13.97699335 -16.9450332 15.92740722 -16.6875 20.15234375 C-16.36575079 22.47212756 -16.36575079 22.47212756 -14.64453125 24.84375 C-11.5005492 26.74668651 -9.88806854 26.9458793 -6.26953125 26.28125 C-3.26953125 24.28125 -3.26953125 24.28125 -1.26953125 21.28125 C-0.71604487 17.40684532 -0.96984562 14.50080988 -3.26953125 11.28125 C-6.98933239 8.80138257 -9.98261271 8.60854258 -14.01953125 10.71875 Z " fill="#FCFCFC" transform="translate(449.26953125,170.71875)"/>
<path d="M0 0 C0.89847656 0.00257813 1.79695312 0.00515625 2.72265625 0.0078125 C3.61855469 0.00523437 4.51445312 0.00265625 5.4375 0 C7.78515625 0.1328125 7.78515625 0.1328125 9.78515625 1.1328125 C10.77515625 0.8028125 11.76515625 0.4728125 12.78515625 0.1328125 C17.3294316 -0.43883997 21.7798142 -0.82904183 25.9921875 1.19140625 C30.5514534 4.73323597 31.93786393 8.46439777 32.78515625 14.1328125 C33.02572352 17.95073627 33.02055111 21.74628628 32.97265625 25.5703125 C32.97201172 26.57513672 32.97136719 27.57996094 32.97070312 28.61523438 C32.92581314 35.99215561 32.92581314 35.99215561 31.78515625 37.1328125 C29.93228123 37.20507752 28.07681747 37.2166247 26.22265625 37.1953125 C25.21074219 37.18628906 24.19882813 37.17726562 23.15625 37.16796875 C21.98255859 37.15056641 21.98255859 37.15056641 20.78515625 37.1328125 C20.7601001 36.48207764 20.73504395 35.83134277 20.70922852 35.16088867 C20.59321923 32.21383204 20.4705151 29.2670912 20.34765625 26.3203125 C20.30833984 25.29615234 20.26902344 24.27199219 20.22851562 23.21679688 C20.18662109 22.23388672 20.14472656 21.25097656 20.1015625 20.23828125 C20.06490479 19.33231201 20.02824707 18.42634277 19.99047852 17.49291992 C19.86433575 14.98232468 19.86433575 14.98232468 18.78515625 12.1328125 C15.93437534 11.36564399 15.93437534 11.36564399 12.78515625 11.1328125 C11.0016741 12.22233981 11.0016741 12.22233981 9.78515625 14.1328125 C9.28107455 16.64154409 9.28107455 16.64154409 9.2734375 19.45703125 C9.23798828 20.48505859 9.20253906 21.51308594 9.16601562 22.57226562 C9.13217773 24.18004883 9.13217773 24.18004883 9.09765625 25.8203125 C9.06349609 26.90376953 9.02933594 27.98722656 8.99414062 29.10351562 C8.91161875 31.77958227 8.84671239 34.45618153 8.78515625 37.1328125 C4.82515625 37.1328125 0.86515625 37.1328125 -3.21484375 37.1328125 C-3.23949385 32.02417354 -3.25767982 26.91556891 -3.26977539 21.80688477 C-3.27481579 20.06762082 -3.28164805 18.32836114 -3.2902832 16.58911133 C-3.30236167 14.09455313 -3.30807483 11.60005077 -3.3125 9.10546875 C-3.31766129 8.32317398 -3.32282257 7.54087921 -3.32814026 6.73487854 C-3.32833601 4.86714136 -3.27684069 2.99952046 -3.21484375 1.1328125 C-2.21484375 0.1328125 -2.21484375 0.1328125 0 0 Z " fill="#FCFCFC" transform="translate(155.21484375,169.8671875)"/>
<path d="M0 0 C11 0 11 0 13 1 C13.66 0.67 14.32 0.34 15 0 C19.81143363 -0.40288977 24.39454299 -0.61485588 28.9375 1.125 C32.77081303 4.60983003 34.78118322 6.88482647 35.32202148 12.11279297 C35.39373799 15.87420865 35.34807436 19.61422557 35.25 23.375 C35.23195313 24.68339844 35.21390625 25.99179688 35.1953125 27.33984375 C35.14829348 30.56064689 35.08258181 33.77994474 35 37 C31.37 37 27.74 37 24 37 C22.23234568 33.46469136 23.00755215 29.10912817 23.12695312 25.20507812 C23.20318223 20.40264466 22.58191412 16.54727342 21 12 C19.94689723 10.72996677 19.94689723 10.72996677 17.5625 10.8125 C14.83265325 10.73160017 14.83265325 10.73160017 13 13 C12.62864085 15.52037964 12.62864085 15.52037964 12.5859375 18.4453125 C12.52792969 20.05986328 12.52792969 20.05986328 12.46875 21.70703125 C12.4378125 22.83496094 12.406875 23.96289062 12.375 25.125 C12.31699219 26.82849609 12.31699219 26.82849609 12.2578125 28.56640625 C12.16332767 31.37732987 12.08056679 34.18864304 12 37 C8.04 37 4.08 37 0 37 C0 24.79 0 12.58 0 0 Z " fill="#FBFCFB" transform="translate(521,170)"/>
<path d="M0 0 C3.63 0 7.26 0 11 0 C11 12.21 11 24.42 11 37 C7.37 37 3.74 37 0 37 C-1.76072584 35.23927416 -1.12834784 32.9210371 -1.13894653 30.5760498 C-1.1369223 29.81876587 -1.13489807 29.06148193 -1.1328125 28.28125 C-1.13376923 27.50817505 -1.13472595 26.7351001 -1.13571167 25.93859863 C-1.13639341 24.30102456 -1.13453957 22.66344781 -1.13037109 21.02587891 C-1.12502271 18.51068079 -1.13031626 15.99566127 -1.13671875 13.48046875 C-1.13605797 11.89322877 -1.1347768 10.3059889 -1.1328125 8.71875 C-1.13483673 7.96146606 -1.13686096 7.20418213 -1.13894653 6.4239502 C-1.11495132 1.11495132 -1.11495132 1.11495132 0 0 Z " fill="#FCFDFC" transform="translate(503,170)"/>
<path d="M0 0 C3.63 0 7.26 0 11 0 C11 12.21 11 24.42 11 37 C7.37 37 3.74 37 0 37 C0 24.79 0 12.58 0 0 Z " fill="#FCFCFC" transform="translate(134,170)"/>
<path d="M0 0 C1.8125 1.1875 1.8125 1.1875 3 3 C3.5 5.9375 3.5 5.9375 3 9 C0.875 11.4375 0.875 11.4375 -2 13 C-5.1875 12.9375 -5.1875 12.9375 -8 12 C-10.31332486 8.53001271 -10.33957563 7.07490752 -10 3 C-7.09160878 -1.36258683 -4.77799698 -1.43339909 0 0 Z " fill="#FCFDFC" transform="translate(512,154)"/>
<path d="M0 0 C1.38550197 2.77100394 1.1877467 4.9334706 1 8 C-1 11 -1 11 -3.8125 11.9375 C-7 12 -7 12 -9.875 10.4375 C-12 8 -12 8 -12.5 4.9375 C-12 2 -12 2 -10.6875 0.1875 C-6.6839385 -2.62982106 -4.28726856 -1.77082832 0 0 Z " fill="#FDFDFC" transform="translate(145,155)"/>
<path d="M0 0 C0.8353125 1.1446875 0.8353125 1.1446875 1.6875 2.3125 C4.91950757 6.06861691 7.5296311 7.61160067 12.3125 8.875 C16.77302643 9.02620429 20.0632334 8.05435866 24 6 C24.66 5.34 25.32 4.68 26 4 C27.8125 4 27.8125 4 30 5 C31.8456968 6.89828075 33.38401815 8.89024592 35 11 C33.614012 14.35066172 32.2243823 15.83371851 29.125 17.6875 C28.44695312 18.10386719 27.76890625 18.52023438 27.0703125 18.94921875 C20.96325046 22.04884081 12.96657113 22.0400156 6.4375 20.328125 C4.59356231 19.63006288 2.79017655 18.82623533 1 18 C4.75 16.875 4.75 16.875 7 18 C15.8195722 18.61555367 23.40157505 19.06561664 31 14 C31 10.23312136 30.76462683 9.08809695 29 6 C28.03900391 6.54140625 28.03900391 6.54140625 27.05859375 7.09375 C21.06248373 10.31073898 16.7951342 12.18745289 9.93359375 10.48828125 C5.29927556 9.01178577 2.57920342 7.29867237 0 3 C0 2.01 0 1.02 0 0 Z " fill="#E5566C" transform="translate(94,187)"/>
<path d="M0 0 C5.75463899 1.1880545 9.76861421 4.08596815 14 8 C12.47291037 11.43595166 10.40072955 14.11912454 8 17 C5.47114975 16.5316944 3.86950145 15.91535229 1.6875 14.5 C-1.56576835 12.68422232 -4.31793606 12.4016797 -8 12 C-9.33917261 11.69096017 -10.67653254 11.37057089 -12 11 C-11 10 -11 10 -7.4375 9.6875 C-3.16819865 9.69516481 -0.42197525 11.06792474 3.140625 13.3203125 C5.04572744 14.23902959 5.04572744 14.23902959 7.15625 13.25 C9.34826903 11.7638854 10.02796122 10.43009695 11 8 C9.36021682 6.95650161 7.68535024 5.96817992 6 5 C5.05125 4.443125 4.1025 3.88625 3.125 3.3125 C-2.68465568 0.81707743 -9.79198981 1.78427764 -16 2 C-11.10799293 -1.26133804 -5.72218341 -0.43390964 0 0 Z " fill="#E85D70" transform="translate(115,154)"/>
<path d="M0 0 C-0.59167969 0.35191406 -1.18335937 0.70382813 -1.79296875 1.06640625 C-8.09221199 5.00214876 -12.57555494 8.72666482 -15 16 C-15.1484944 18.61864161 -15.2310027 21.1932477 -15.25 23.8125 C-15.270625 24.51181641 -15.29125 25.21113281 -15.3125 25.93164062 C-15.36699671 33.21376349 -12.60673677 37.59899827 -8 43 C-8.33 43.66 -8.66 44.32 -9 45 C-15.37293817 38.58581303 -18.07395615 32.50644584 -18.375 23.4375 C-18.05258932 14.17786513 -14.63961199 8.37636746 -8 2 C-3.69230769 -1.23076923 -3.69230769 -1.23076923 0 0 Z " fill="#E95B6E" transform="translate(99,157)"/>
<path d="M0 0 C3.21462343 1.65601813 4.87387056 4.20512267 7.0625 7.0625 C5.3125 10.9375 5.3125 10.9375 3.0625 12.0625 C3.289375 11.299375 3.51625 10.53625 3.75 9.75 C3.853125 8.863125 3.95625 7.97625 4.0625 7.0625 C2.68735459 5.3537354 2.68735459 5.3537354 1.0625 4.0625 C1.0625 3.4025 1.0625 2.7425 1.0625 2.0625 C0.464375 2.413125 -0.13375 2.76375 -0.75 3.125 C-2.9375 4.0625 -2.9375 4.0625 -5.9375 3.0625 C-2.60148929 0.08391901 -2.60148929 0.08391901 0 0 Z " fill="#E65F76" transform="translate(121.9375,190.9375)"/>
</svg>
