<?xml version="1.0" encoding="UTF-8"?>
<svg version="1.1" xmlns="http://www.w3.org/2000/svg" width="26" height="28">
<path d="M0 0 C0.495 0.474375 0.99 0.94875 1.5 1.4375 C0.84 3.0875 0.18 4.7375 -0.5 6.4375 C-1.10328125 6.26992187 -1.7065625 6.10234375 -2.328125 5.9296875 C-3.12734375 5.72601563 -3.9265625 5.52234375 -4.75 5.3125 C-5.93335938 4.99925781 -5.93335938 4.99925781 -7.140625 4.6796875 C-9.95700532 4.39058886 -11.16851898 4.87974056 -13.5 6.4375 C-14.88550197 9.20850394 -14.6877467 11.3709706 -14.5 14.4375 C-12.81119584 17.66488328 -12.81119584 17.66488328 -9.75 18.25 C-6.15873199 18.45718854 -3.81022199 17.77735176 -0.5 16.4375 C1.5 18.4375 1.5 18.4375 1.5625 20.375 C0.17388996 23.07053714 -1.60231232 23.97632889 -4.3984375 25.0234375 C-8.3706781 25.80607227 -11.79777351 24.94478546 -15.5 23.4375 C-19.2422525 20.80996101 -20.77467378 18.36948497 -22 14.0625 C-22.81291392 9.40953555 -21.98324773 6.52284304 -19.5 2.4375 C-13.87624961 -3.04205166 -6.85134197 -4.28208873 0 0 Z " fill="#FB4B5F" transform="translate(22.5,2.5625)"/>
</svg>
